<svg xmlns="http://www.w3.org/2000/svg" viewBox="0 0 400 120">
  <defs>
    <linearGradient id="aetnaGrad" x1="0%" y1="0%" x2="100%" y2="100%">
      <stop offset="0%" style="stop-color:#7B2D8E;stop-opacity:1" />
      <stop offset="100%" style="stop-color:#5B1F6A;stop-opacity:1" />
    </linearGradient>
  </defs>
  <!-- Aetna Heart Icon -->
  <g transform="translate(30, 15)">
    <path d="M45 25C45 11.2 35.8 0 22.5 0 10.1 0 0 11.2 0 25c0 22 22.5 40 22.5 40S45 47 45 25z" fill="#7B2D8E" opacity="0.9"/>
    <path d="M45 25C45 11.2 35.8 0 22.5 0 10.1 0 0 11.2 0 25c0 22 22.5 40 22.5 40S45 47 45 25z" fill="url(#aetnaGrad)"/>
    <text x="22.5" y="35" text-anchor="middle" fill="white" font-size="22" font-weight="bold" font-family="Arial, sans-serif">a</text>
  </g>
  <!-- Aetna Text -->
  <text x="95" y="55" fill="#7B2D8E" font-size="48" font-weight="bold" font-family="'Helvetica Neue', Arial, sans-serif" letter-spacing="2">Aetna</text>
  <!-- Tagline -->
  <text x="95" y="80" fill="#7B2D8E" font-size="14" font-family="'Helvetica Neue', Arial, sans-serif" letter-spacing="3" opacity="0.7">a CVS Health company</text>
</svg>